<?xml version="1.0" encoding="utf-8"?>
<!-- Generator: Adobe Illustrator 19.1.1, SVG Export Plug-In . SVG Version: 6.00 Build 0)  -->
<svg version="1.1" id="Layer_1" xmlns="http://www.w3.org/2000/svg" xmlns:xlink="http://www.w3.org/1999/xlink" x="0px" y="0px"
	 viewBox="0 0 39.1 49.1" style="enable-background:new 0 0 39.1 49.1;" xml:space="preserve">
<style type="text/css">
	.Drop_x0020_Shadow{fill:none;}
	.Outer_x0020_Glow_x0020_5_x0020_pt{fill:none;}
	.Blue_x0020_Neon{fill:none;stroke:#8AACDA;stroke-width:7;stroke-linecap:round;stroke-linejoin:round;}
	.Chrome_x0020_Highlight{fill:url(#SVGID_1_);stroke:#FFFFFF;stroke-width:0.3629;stroke-miterlimit:1;}
	.Jive_GS{fill:#FFDD00;}
	.Alyssa_GS{fill:#A6D0E4;}
	.st0{fill:#141414;}
</style>
<linearGradient id="SVGID_1_" gradientUnits="userSpaceOnUse" x1="-4.3987" y1="-0.4673" x2="-4.3987" y2="-1.4673">
	<stop  offset="0" style="stop-color:#656565"/>
	<stop  offset="0.618" style="stop-color:#1B1B1B"/>
	<stop  offset="0.6292" style="stop-color:#545454"/>
	<stop  offset="0.9831" style="stop-color:#3E3E3E"/>
</linearGradient>
<g>
	<path class="st0" d="M0,25.9c0-2.6,0.3-5.1,1-7.4c0.7-2.3,1.6-4.4,2.8-6.4C4.9,10.2,6.3,8.5,7.9,7c1.6-1.5,3.4-2.8,5.3-3.8
		c1.9-1,4-1.8,6.2-2.4C21.6,0.3,23.8,0,26.1,0c1.5,0,2.9,0.1,4.2,0.2c1.3,0.2,2.5,0.4,3.5,0.6c1.1,0.2,2,0.4,2.9,0.7
		c0.9,0.2,1.6,0.4,2.3,0.6l-0.6,10.6h-5l-2-5.8c-0.4-0.4-0.8-0.7-1.3-1c-0.5-0.3-1-0.5-1.6-0.7C28,5.1,27.3,5,26.5,4.9
		c-0.8-0.1-1.8-0.1-2.9-0.1c-1.9,0-3.7,0.4-5.4,1.2c-1.7,0.8-3.2,2-4.5,3.6s-2.3,3.5-3,5.9c-0.7,2.3-1.1,5-1.1,8
		c0,1.8,0.1,3.7,0.4,5.4c0.3,1.8,0.7,3.4,1.2,5c0.6,1.6,1.2,3,2.1,4.3c0.8,1.3,1.8,2.5,2.9,3.4c1.1,1,2.3,1.7,3.6,2.2
		s2.8,0.8,4.4,0.8c1.3,0,2.4-0.1,3.3-0.2c0.9-0.2,1.7-0.4,2.4-0.6c0.7-0.3,1.2-0.6,1.7-1s0.8-0.8,1.1-1.2l2.2-5.5h4.2v10.1
		c-0.8,0-1.6,0.2-2.5,0.5c-0.9,0.3-2,0.6-3.2,1c-1.2,0.3-2.7,0.7-4.3,1c-1.7,0.3-3.6,0.4-5.9,0.4c-3.6,0-6.8-0.6-9.7-1.8
		c-2.9-1.2-5.3-2.8-7.3-4.8c-2-2.1-3.5-4.5-4.6-7.3C0.5,32.3,0,29.2,0,25.9z"/>
</g>
</svg>
