<?xml version="1.0" encoding="utf-8"?>
<!-- Generator: Adobe Illustrator 19.1.1, SVG Export Plug-In . SVG Version: 6.00 Build 0)  -->
<svg version="1.1" id="Layer_1" xmlns="http://www.w3.org/2000/svg" xmlns:xlink="http://www.w3.org/1999/xlink" x="0px" y="0px"
	 viewBox="0 0 355.9 447" style="enable-background:new 0 0 355.9 447;" xml:space="preserve">
<style type="text/css">
	.Drop_x0020_Shadow{fill:none;}
	.Outer_x0020_Glow_x0020_5_x0020_pt{fill:none;}
	.Blue_x0020_Neon{fill:none;stroke:#8AACDA;stroke-width:7;stroke-linecap:round;stroke-linejoin:round;}
	.Chrome_x0020_Highlight{fill:url(#SVGID_1_);stroke:#FFFFFF;stroke-width:0.3629;stroke-miterlimit:1;}
	.Jive_GS{fill:#FFDD00;}
	.Alyssa_GS{fill:#A6D0E4;}
	.st0{fill:#141414;}
</style>
<linearGradient id="SVGID_1_" gradientUnits="userSpaceOnUse" x1="-1.4292" y1="-4.2217" x2="-1.4292" y2="-5.2217">
	<stop  offset="0" style="stop-color:#656565"/>
	<stop  offset="0.618" style="stop-color:#1B1B1B"/>
	<stop  offset="0.6292" style="stop-color:#545454"/>
	<stop  offset="0.9831" style="stop-color:#3E3E3E"/>
</linearGradient>
<g>
	<path class="st0" d="M0,236.3c0-24.1,3-46.7,9-67.8c6-21.1,14.3-40.4,25.1-57.9c10.7-17.5,23.5-33.1,38.3-46.8
		c14.8-13.7,31-25.3,48.6-34.8c17.7-9.4,36.3-16.6,56.1-21.6C196.7,2.5,216.9,0,237.7,0c14,0,26.9,0.7,38.5,2.2
		c11.7,1.5,22.3,3.2,32,5.2c9.6,2,18.4,4,26.2,6.2c7.8,2.2,14.9,3.9,21.3,5.2l-5.3,97h-46l-17.9-52.7c-3.7-3.4-7.7-6.3-11.8-8.7
		c-4.1-2.4-8.9-4.4-14.4-6c-5.5-1.6-11.9-2.8-19.2-3.6s-16-1.3-26.1-1.3c-17.4,0-33.8,3.8-49.3,11.4c-15.5,7.6-29.1,18.6-40.6,33.1
		c-11.6,14.5-20.7,32.3-27.5,53.5c-6.7,21.2-10.1,45.5-10.1,72.7c0,16.8,1.3,33.3,3.8,49.3c2.5,16.1,6.3,31.3,11.4,45.5
		s11.3,27.5,18.8,39.5c7.5,12.1,16.2,22.4,26.1,31.1c9.9,8.7,20.9,15.5,33.1,20.3c12.1,4.9,25.5,7.3,40.1,7.3
		c11.6,0,21.6-0.7,30.1-2.1c8.5-1.4,15.8-3.3,22-5.7c6.2-2.4,11.3-5.3,15.3-8.7c4-3.4,7.3-7,10-10.9l19.9-50.4h38.1V421
		c-6.9,0.4-14.4,1.9-22.6,4.6c-8.1,2.7-17.8,5.7-29,8.8c-11.2,3.2-24.4,6.1-39.5,8.7c-15.1,2.6-33.1,3.9-53.8,3.9
		c-32.9,0-62.4-5.3-88.4-16c-26.1-10.7-48.2-25.4-66.4-44.1c-18.2-18.8-32.1-41.1-41.8-66.8C4.8,294.3,0,266.4,0,236.3z"/>
</g>
<g>
	<path class="st0" d="M104.6,210.8c0-1.5,0.2-2.9,0.6-4.3s0.9-2.5,1.7-3.6s1.5-2.1,2.5-2.9s2-1.6,3.2-2.2s2.4-1,3.6-1.4
		s2.6-0.5,3.9-0.5c0.9,0,1.7,0,2.4,0.1s1.4,0.2,2,0.3s1.2,0.2,1.6,0.4s0.9,0.2,1.3,0.3l-0.4,6.8h-3.7l-1.3-3.6
		c-0.1-0.2-0.3-0.3-0.4-0.5s-0.4-0.2-0.7-0.3s-0.6-0.2-1.1-0.2s-1-0.1-1.6-0.1c-1,0-1.9,0.2-2.7,0.7s-1.6,1.1-2.2,1.9
		s-1.1,1.9-1.5,3.1s-0.5,2.7-0.5,4.2c0,1,0.1,2,0.2,3s0.3,1.9,0.6,2.8s0.6,1.7,1,2.4s0.9,1.4,1.4,1.9s1.1,1,1.8,1.3s1.4,0.5,2.2,0.5
		c0.7,0,1.4,0,1.9-0.1s0.9-0.2,1.2-0.3s0.6-0.3,0.7-0.4s0.3-0.3,0.4-0.5l1.4-3.5h3.1v6.3c-0.4,0-0.9,0.1-1.4,0.3s-1.1,0.4-1.8,0.6
		s-1.5,0.4-2.5,0.6s-2.1,0.3-3.4,0.3c-2.3,0-4.2-0.3-6-1s-3.2-1.6-4.3-2.8s-2-2.6-2.6-4.2S104.6,212.6,104.6,210.8z"/>
	<path class="st0" d="M130.7,213.7c0-1.8,0.3-3.4,0.9-4.7s1.4-2.4,2.4-3.2s2.1-1.5,3.4-1.9s2.6-0.6,4-0.6c1.6,0,3,0.2,4.2,0.6
		s2.3,1,3.2,1.9s1.5,1.9,2,3.1s0.7,2.7,0.7,4.3c0,1.9-0.3,3.5-0.9,4.8s-1.4,2.5-2.3,3.4s-2.1,1.6-3.4,2s-2.6,0.7-4,0.7
		c-1.9,0-3.5-0.3-4.8-0.8s-2.4-1.3-3.2-2.2s-1.4-2-1.8-3.3S130.6,215.1,130.7,213.7z M141.1,221.4c0.8,0,1.5-0.2,2-0.7
		s0.9-1.1,1.2-1.9s0.5-1.6,0.5-2.6s0.1-1.9,0.1-2.8c0-0.6,0-1.1-0.1-1.7s-0.1-1.2-0.2-1.7s-0.2-1.1-0.4-1.6s-0.4-0.9-0.7-1.3
		s-0.6-0.7-1-0.9s-0.8-0.3-1.4-0.3c-0.5,0-1,0.1-1.4,0.3s-0.8,0.5-1.1,0.8s-0.5,0.8-0.7,1.2s-0.3,1-0.5,1.5s-0.2,1.1-0.2,1.7
		s-0.1,1.2-0.1,1.7c0,0.5,0,1.1,0.1,1.7s0.1,1.2,0.2,1.8s0.3,1.2,0.4,1.8s0.4,1.1,0.7,1.5s0.6,0.8,1,1.1S140.6,221.4,141.1,221.4z"
		/>
	<path class="st0" d="M154.5,221.1l2.2-0.4v-11.6l-2.4-1.7v-2.2l6.5-1.9l1.3,0.3v2.6c0.5-0.4,1-0.8,1.5-1.2s1.2-0.7,1.8-0.9
		s1.3-0.4,2-0.6s1.4-0.2,2-0.2c1.1,0,2.1,0.2,2.8,0.5s1.3,0.9,1.8,1.6s0.8,1.5,0.9,2.5s0.3,2.1,0.3,3.3v9.5l2.5,0.5v2.4h-11.2v-2.4
		l2.5-0.5V212c0-0.9,0-1.7-0.1-2.3s-0.3-1.1-0.5-1.4s-0.6-0.6-1-0.7s-1-0.2-1.8-0.2c-0.1,0-0.3,0-0.5,0.1s-0.5,0.1-0.8,0.2
		s-0.5,0.2-0.8,0.3s-0.5,0.2-0.6,0.3v12.5l2.2,0.5v2.4h-10.6V221.1z"/>
	<path class="st0" d="M181.8,207h-2.7v-2c0.6-0.1,1.2-0.3,1.8-0.5s1-0.5,1.4-0.8c0.4-0.3,0.7-0.9,1.1-1.6s0.8-1.7,1.1-3h3v4.7h6v3.1
		h-5.7v6.4c0,1.6,0,2.8,0.1,3.7s0.2,1.6,0.4,2.1s0.4,0.8,0.7,0.9s0.6,0.2,1,0.2c0.2,0,0.5,0,0.8,0s0.6-0.1,0.9-0.1s0.5-0.1,0.8-0.2
		s0.5-0.2,0.6-0.3l0.9,2c-0.3,0.3-0.7,0.6-1.1,0.8s-1,0.5-1.7,0.7s-1.3,0.4-2,0.5s-1.5,0.2-2.3,0.2c-1,0-1.9-0.1-2.5-0.4
		s-1.2-0.7-1.6-1.2c-0.4-0.5-0.6-1.2-0.8-2s-0.2-1.8-0.2-2.9V207z"/>
	<path class="st0" d="M196.3,216.6c0.2-0.7,0.5-1.3,0.9-1.8s1-1,1.7-1.4s1.4-0.7,2.2-1s1.6-0.5,2.4-0.7c0.8-0.2,1.6-0.3,2.3-0.4
		s1.4-0.1,2-0.1c0-0.9-0.1-1.7-0.2-2.3s-0.4-1-0.7-1.4s-0.7-0.6-1.2-0.7s-1-0.2-1.6-0.2c-0.8,0-1.5,0.1-2.1,0.2s-1.2,0.3-1.7,0.4
		s-0.9,0.3-1.3,0.5s-0.6,0.3-0.7,0.4l-1.2-2.7c0.2-0.2,0.5-0.4,1-0.6s1.1-0.5,1.9-0.7s1.6-0.4,2.7-0.6s2.1-0.2,3.4-0.2
		c1.2,0,2.3,0.1,3.3,0.3s1.8,0.6,2.6,1.1s1.3,1.3,1.7,2.2s0.6,2.1,0.6,3.5v10.6h2.3v1.9c-0.3,0.2-0.6,0.4-1,0.5s-0.8,0.2-1.2,0.3
		s-0.8,0.1-1.2,0.1s-0.8,0-1.1,0c-0.2,0-0.5,0-0.9-0.1s-0.7-0.1-1-0.3s-0.6-0.4-0.9-0.6s-0.4-0.6-0.4-1c-0.6,0.6-1.3,1.1-2.2,1.4
		s-1.8,0.6-2.9,0.6c-1.5,0-2.8-0.2-3.8-0.6s-1.8-1-2.4-1.7s-0.9-1.5-1.1-2.4S196,217.5,196.3,216.6z M202.4,217.6c0,1.1,0.3,2,1,2.5
		c0.6,0.5,1.6,0.7,2.8,0.5c0.3,0,0.6-0.1,0.9-0.3s0.5-0.3,0.7-0.4c0-1,0-2,0-3s0-2,0-3c-0.4,0-0.8,0-1.2,0.1s-0.8,0.1-1.2,0.2
		s-0.8,0.3-1.1,0.4s-0.7,0.4-1,0.7c-0.3,0.3-0.5,0.6-0.7,1S202.4,217.1,202.4,217.6z"/>
	<path class="st0" d="M217.7,214.3c0-1.7,0.3-3.2,0.8-4.6s1.3-2.5,2.3-3.4s2.1-1.7,3.5-2.2s2.8-0.8,4.3-0.9c0.6,0,1.2,0,1.9,0
		s1.3,0.1,1.9,0.2s1.1,0.2,1.6,0.3s0.9,0.3,1.1,0.4v5.6h-3.2l-1.4-3.3c-0.3-0.2-0.7-0.3-1.1-0.4s-0.8-0.1-1.2-0.1
		c-0.6,0-1.1,0.1-1.6,0.4s-0.9,0.7-1.2,1.3s-0.6,1.2-0.8,2s-0.3,1.7-0.4,2.8c0,1.4,0.1,2.6,0.4,3.6s0.7,1.8,1.2,2.5s1.2,1.1,1.9,1.4
		s1.5,0.4,2.2,0.4c0.5,0,1,0,1.5-0.1s1-0.2,1.4-0.3s0.8-0.2,1.2-0.4s0.6-0.3,0.8-0.5l0.9,2.2c-0.9,0.8-2.1,1.4-3.5,1.9
		s-3,0.7-4.8,0.7c-1.6,0-3-0.2-4.2-0.7s-2.2-1.2-3-2s-1.5-1.9-1.9-3.1S217.7,215.7,217.7,214.3z"/>
	<path class="st0" d="M239.5,207h-2.7v-2c0.6-0.1,1.2-0.3,1.8-0.5s1-0.5,1.4-0.8c0.4-0.3,0.8-0.9,1.1-1.6s0.8-1.7,1.1-3h3v4.7h6v3.1
		h-5.7v6.4c0,1.6,0,2.8,0.1,3.7s0.2,1.6,0.4,2.1s0.4,0.8,0.7,0.9s0.6,0.2,1,0.2c0.2,0,0.5,0,0.8,0s0.6-0.1,0.9-0.1s0.5-0.1,0.8-0.2
		s0.5-0.2,0.6-0.3l0.9,2c-0.3,0.3-0.7,0.6-1.1,0.8s-1,0.5-1.7,0.7s-1.3,0.4-2,0.5s-1.5,0.2-2.3,0.2c-1,0-1.9-0.1-2.5-0.4
		s-1.2-0.7-1.6-1.2s-0.6-1.2-0.8-2s-0.2-1.8-0.2-2.9V207z"/>
</g>
</svg>
