<?xml version="1.0" encoding="utf-8"?>
<!-- Generator: Adobe Illustrator 19.1.1, SVG Export Plug-In . SVG Version: 6.00 Build 0)  -->
<svg version="1.1" id="Layer_1" xmlns="http://www.w3.org/2000/svg" xmlns:xlink="http://www.w3.org/1999/xlink" x="0px" y="0px"
	 viewBox="-236 227 27 48" style="enable-background:new -236 227 27 48;" xml:space="preserve">
<style type="text/css">
	.st0{fill:none;stroke:#FFFFFF;stroke-width:3;}
	.st1{fill:#FFFFFF;}
</style>
<path class="st0" d="M-223,228.5h1c6.4,0,11.5,5.1,11.5,11.5v22c0,6.4-5.1,11.5-11.5,11.5h-1c-6.4,0-11.5-5.1-11.5-11.5v-22
	C-234.5,233.6-229.4,228.5-223,228.5z"/>
<path class="st1" d="M-223.5,243.5h2c2.2,0,4,1.8,4,4v7c0,2.2-1.8,4-4,4h-2c-2.2,0-4-1.8-4-4v-7
	C-227.5,245.3-225.7,243.5-223.5,243.5z"/>
</svg>
