<?xml version="1.0" encoding="utf-8"?>
<!-- Generator: Adobe Illustrator 19.1.1, SVG Export Plug-In . SVG Version: 6.00 Build 0)  -->
<svg version="1.1" id="Layer_1" xmlns="http://www.w3.org/2000/svg" xmlns:xlink="http://www.w3.org/1999/xlink" x="0px" y="0px"
	 viewBox="-98 22.7 302.9 457.3" style="enable-background:new -98 22.7 302.9 457.3;" xml:space="preserve">
<style type="text/css">
	.st0{fill:#141414;}
</style>
<g>
	<path class="st0" d="M-98,348.5h35.3l23,64c5.4,6.3,11.4,11.4,18.2,15.4c6.8,3.9,14,7,21.7,9.2s15.5,3.6,23.5,4.3
		c8,0.7,16,1,23.8,1c8.8,0,17.7-1.2,26.8-3.6S91.6,432.5,99,427s13.4-12.6,18.1-21.4s7-19.6,7-32.4c0-10.9-3-20.8-8.9-29.7
		c-5.9-8.9-13.8-17.2-23.5-25c-9.8-7.8-21-15.2-33.6-22.4c-12.6-7.2-25.6-14.4-39-21.7c-14.4-7.8-28.5-16.2-42.5-25
		c-14-8.8-26.5-18.5-37.5-29.1s-19.9-22.5-26.7-35.6s-10.2-28-10.2-44.6c0-13.2,2.1-25.3,6.2-36.3s9.7-20.9,16.8-29.6
		s15.4-16.3,25-22.7S-30,39.7-19.2,35.4c10.8-4.3,22.1-7.5,33.9-9.6c11.7-2,23.4-3.1,34.9-3.1c14.9,0,29.3,0.7,43.1,2.2
		c13.8,1.4,26.3,3.2,37.6,5.3s21,4.4,29,6.9s13.8,4.8,17.2,6.9v88.4h-37.3l-25-58c-1.9-1.9-5-3.8-9.2-5.7c-4.2-1.9-9.1-3.6-14.6-5
		c-5.6-1.4-11.5-2.6-17.9-3.4C66.1,59.4,59.7,59,53.4,59c-7.7,0-15.8,0.9-24.4,2.7c-8.6,1.8-16.6,5-23.8,9.5
		C-2.2,75.6-8.2,81.5-13,89s-7.2,16.8-7.2,28.1c0,10.7,2.4,20.5,7.3,29.4s11.4,17.2,19.5,25s17.6,15,28.4,21.7s22.1,13.3,34,19.8
		c10.5,5.7,21.2,11.5,32,17.4c10.8,5.8,21.2,12,31.3,18.5c10,6.5,19.5,13.4,28.3,20.7c8.8,7.3,16.5,15.2,23.1,23.7
		s11.8,17.8,15.5,28c3.7,10.1,5.6,21.2,5.6,33.3c0,19.7-4,37.3-11.9,52.8s-19,28.7-33.2,39.5s-31.1,19-50.8,24.7
		c-19.7,5.6-41.4,8.5-65.2,8.5c-13.8,0-27.8-0.7-42.1-2.2c-14.3-1.4-27.8-3.4-40.5-5.7c-12.7-2.4-24.3-5.1-34.7-8.2
		c-10.3-3.1-18.5-6.3-24.4-9.6L-98,348.5L-98,348.5z"/>
</g>
<g>
	<path class="st0" d="M-7.4,120.2l3-0.6V99.1l-2.8-0.4v-2.4h5.3c0.7,0,1.6,0,2.6-0.1c1-0.1,2.1-0.1,3.2-0.1c1.3,0,2.5,0.1,3.7,0.3
		c1.1,0.2,2.1,0.6,3,1.2c0.8,0.6,1.5,1.4,2,2.3c0.5,1,0.7,2.2,0.7,3.7c0,1.4-0.3,2.6-0.8,3.6c-0.5,1.1-1.2,1.9-2.1,2.7
		c-0.9,0.7-1.9,1.3-3.1,1.6c-1.2,0.4-2.4,0.5-3.8,0.5c-0.7,0-1.3,0-1.8,0c-0.5,0-0.9,0-1.3,0v7.4l4.2,0.6v1.9h-12V120.2z M0.3,109.6
		c0.5,0.1,1,0.1,1.5,0.1c0.6,0,1.1,0,1.5,0c0.7,0,1.3-0.1,2-0.3c0.6-0.2,1.2-0.5,1.7-1c0.5-0.5,0.9-1.1,1.2-1.9
		c0.3-0.8,0.4-1.8,0.4-3.1c0-0.9-0.1-1.7-0.4-2.3S7.5,100,7,99.6c-0.5-0.4-1.1-0.7-1.8-0.9s-1.5-0.3-2.3-0.3c-0.2,0-0.4,0-0.6,0
		c-0.2,0-0.5,0-0.7,0c-0.2,0-0.5,0-0.7,0.1c-0.2,0-0.4,0.1-0.6,0.1V109.6z"/>
	<path class="st0" d="M15.3,120.2l2.3-0.4v-12l-2.3-1.5v-1.6l5.4-1.6l1,0.3v3c0.2-0.5,0.5-0.9,0.9-1.3s0.9-0.7,1.4-1
		c0.5-0.3,1-0.5,1.5-0.7c0.5-0.2,1-0.3,1.4-0.3c0.4,0,0.7,0,1,0c0.3,0,0.5,0.1,0.7,0.1v4.4c-0.3-0.2-0.7-0.4-1.3-0.5
		c-0.5-0.1-1.1-0.2-1.6-0.2c-0.5,0-0.9,0-1.2,0.1c-0.4,0.1-0.7,0.1-0.9,0.2c-0.3,0.1-0.5,0.2-0.7,0.3c-0.2,0.1-0.4,0.2-0.5,0.3v11.9
		l4.2,0.5v1.9H15.3V120.2z"/>
	<path class="st0" d="M30.8,112.6c0-1.6,0.3-3,0.8-4.2c0.5-1.2,1.2-2.2,2.1-3c0.9-0.8,1.9-1.4,3-1.8c1.1-0.4,2.3-0.6,3.6-0.6
		c1.5,0,2.7,0.2,3.9,0.6s2.1,1.1,2.8,1.9c0.8,0.8,1.3,1.8,1.7,3c0.4,1.2,0.6,2.5,0.6,3.9c0,1.6-0.3,3.1-0.8,4.3
		c-0.5,1.3-1.2,2.3-2.1,3.2c-0.9,0.9-1.9,1.5-3,1.9s-2.3,0.7-3.6,0.7c-1.7,0-3.1-0.3-4.2-0.8c-1.2-0.5-2.1-1.2-2.8-2.1
		c-0.7-0.9-1.3-2-1.6-3.1C30.9,115.2,30.8,113.9,30.8,112.6z M40.1,120.3c0.8,0,1.5-0.2,2.1-0.6c0.6-0.4,1-1,1.3-1.7
		s0.5-1.5,0.7-2.4c0.1-0.9,0.2-1.9,0.2-3c0-0.9-0.1-1.8-0.2-2.7s-0.4-1.7-0.7-2.4c-0.3-0.7-0.7-1.3-1.3-1.7c-0.5-0.4-1.2-0.7-2-0.7
		c-0.9,0-1.6,0.2-2.1,0.6c-0.6,0.4-1,0.9-1.4,1.6c-0.3,0.7-0.6,1.4-0.7,2.3c-0.1,0.9-0.2,1.8-0.2,2.8c0,0.6,0,1.2,0.1,1.8
		c0.1,0.6,0.2,1.2,0.3,1.8c0.1,0.6,0.3,1.2,0.5,1.7s0.5,1,0.8,1.4c0.3,0.4,0.7,0.7,1.1,1C39.1,120.2,39.6,120.3,40.1,120.3z"/>
	<path class="st0" d="M52.2,113.3c0-1.6,0.2-3,0.7-4.2c0.5-1.3,1.2-2.3,2.1-3.2c0.9-0.9,1.9-1.6,3.1-2c1.2-0.5,2.5-0.7,3.8-0.8
		c0.5,0,1.1,0,1.6,0s1.1,0.1,1.6,0.2c0.5,0.1,1,0.2,1.4,0.3c0.4,0.1,0.7,0.2,1,0.4v4.7h-2.4l-1.1-2.7c-0.3-0.2-0.7-0.4-1.2-0.4
		c-0.5-0.1-0.9-0.1-1.2-0.1c-0.6,0-1.2,0.1-1.8,0.4c-0.5,0.3-1,0.7-1.4,1.2c-0.4,0.5-0.7,1.2-1,2c-0.2,0.8-0.4,1.7-0.4,2.8
		c0,1.4,0.1,2.6,0.4,3.6c0.3,1,0.7,1.8,1.3,2.5c0.5,0.6,1.2,1.1,1.9,1.4s1.4,0.4,2.1,0.4c0.5,0,0.9,0,1.4-0.1
		c0.5-0.1,0.9-0.1,1.3-0.2s0.8-0.2,1.1-0.3c0.3-0.1,0.6-0.3,0.8-0.4l0.7,1.8c-0.4,0.3-0.8,0.6-1.4,0.9c-0.5,0.3-1.1,0.5-1.7,0.7
		s-1.3,0.3-2,0.4c-0.7,0.1-1.4,0.1-2.2,0.1c-1.4,0-2.6-0.2-3.7-0.7c-1.1-0.5-2-1.1-2.7-1.9c-0.7-0.8-1.3-1.8-1.7-2.9
		C52.4,115.8,52.2,114.6,52.2,113.3z"/>
	<path class="st0" d="M70.3,113.1c0-1.4,0.2-2.7,0.7-4s1.1-2.3,2-3.2c0.8-0.9,1.9-1.6,3.1-2.1c1.2-0.5,2.5-0.8,4-0.8
		c1.2,0,2.2,0.1,3.1,0.5c0.9,0.3,1.6,0.8,2.2,1.4c0.6,0.6,1,1.3,1.4,2.2c0.3,0.9,0.5,1.8,0.5,2.9c0,0.7,0,1.3,0,1.8
		c-0.1,0.5-0.1,1-0.2,1.4H75.2c0,0,0,0.1,0,0.1c0,0,0,0.1,0,0.1c0.1,1.1,0.3,2.1,0.6,2.9c0.3,0.8,0.7,1.4,1.2,2
		c0.5,0.5,1.1,0.9,1.8,1.1s1.4,0.3,2.2,0.3c0.4,0,0.8,0,1.3-0.1c0.5,0,0.9-0.1,1.4-0.2c0.4-0.1,0.9-0.2,1.3-0.3s0.8-0.3,1.2-0.5
		l0.8,1.8c-0.4,0.3-0.8,0.6-1.4,0.9c-0.6,0.3-1.2,0.5-1.8,0.7s-1.4,0.3-2.1,0.4c-0.7,0.1-1.5,0.1-2.2,0.1c-1.4,0-2.7-0.2-3.8-0.7
		c-1.1-0.4-2-1.1-2.8-1.9c-0.8-0.8-1.3-1.8-1.7-2.9C70.5,115.8,70.3,114.5,70.3,113.1z M82.6,110.8c0-0.5,0.1-1,0.1-1.5s0-1-0.1-1.5
		c-0.1-0.5-0.2-0.9-0.4-1.3c-0.2-0.4-0.5-0.7-0.9-1c-0.2-0.2-0.5-0.3-0.8-0.4c-0.3-0.1-0.7-0.1-1.1-0.1c-0.7,0-1.2,0.1-1.7,0.4
		c-0.5,0.3-0.9,0.7-1.3,1.2c-0.3,0.5-0.6,1.1-0.8,1.8c-0.2,0.7-0.3,1.5-0.4,2.2H82.6z"/>
	<path class="st0" d="M91,116.9h2.2l0.9,1.9c0.2,0.2,0.4,0.4,0.6,0.6s0.5,0.3,0.7,0.5s0.6,0.3,0.9,0.4c0.3,0.1,0.7,0.2,1.1,0.2
		c1.1,0.1,2-0.1,2.6-0.6c0.6-0.4,0.9-1.1,0.9-2c0-0.4-0.1-0.7-0.4-1c-0.3-0.3-0.6-0.6-1-0.9c-0.4-0.3-0.9-0.5-1.4-0.8
		s-1.1-0.5-1.7-0.8c-0.7-0.3-1.4-0.7-2.1-1.1c-0.7-0.4-1.3-0.8-1.8-1.3s-0.9-1.1-1.2-1.7c-0.3-0.6-0.5-1.4-0.4-2.2
		c0-0.6,0.1-1.2,0.4-1.7c0.2-0.5,0.5-0.9,0.9-1.3s0.8-0.7,1.3-1c0.5-0.3,1-0.5,1.6-0.7c0.5-0.2,1.1-0.3,1.7-0.4
		c0.6-0.1,1.1-0.1,1.6-0.1c0.6,0,1.2,0,1.8,0.1c0.6,0.1,1.1,0.1,1.7,0.2c0.5,0.1,1,0.2,1.4,0.3c0.4,0.1,0.8,0.3,1.1,0.4v4.1H102
		l-0.8-2c-0.3-0.3-0.7-0.6-1.1-0.9s-0.9-0.4-1.5-0.4c-0.4,0-0.8,0-1.1,0.1c-0.4,0.1-0.7,0.2-1,0.4c-0.3,0.2-0.5,0.4-0.7,0.6
		c-0.2,0.3-0.2,0.6-0.2,0.9c0,0.4,0.1,0.8,0.3,1.1c0.2,0.3,0.5,0.6,0.8,0.9c0.3,0.3,0.7,0.5,1.2,0.8c0.5,0.2,0.9,0.5,1.4,0.7
		c0.7,0.3,1.5,0.7,2.2,1c0.7,0.3,1.4,0.7,2,1.2c0.6,0.5,1.1,1,1.5,1.6c0.4,0.6,0.6,1.4,0.6,2.2c0,1-0.2,1.9-0.6,2.6
		c-0.4,0.7-1,1.3-1.8,1.8c-0.7,0.5-1.6,0.8-2.6,1c-1,0.2-2,0.3-3.2,0.3c-0.5,0-1.1,0-1.6-0.1c-0.6-0.1-1.1-0.1-1.7-0.3
		c-0.5-0.1-1.1-0.3-1.6-0.4c-0.5-0.2-1-0.4-1.4-0.7V116.9z"/>
	<path class="st0" d="M108.8,116.9h2.2l0.9,1.9c0.2,0.2,0.4,0.4,0.6,0.6s0.5,0.3,0.7,0.5s0.6,0.3,0.9,0.4c0.3,0.1,0.7,0.2,1.1,0.2
		c1.1,0.1,2-0.1,2.6-0.6c0.6-0.4,0.9-1.1,0.9-2c0-0.4-0.1-0.7-0.4-1c-0.3-0.3-0.6-0.6-1-0.9c-0.4-0.3-0.9-0.5-1.4-0.8
		s-1.1-0.5-1.7-0.8c-0.7-0.3-1.4-0.7-2.1-1.1c-0.7-0.4-1.3-0.8-1.8-1.3s-0.9-1.1-1.2-1.7c-0.3-0.6-0.5-1.4-0.4-2.2
		c0-0.6,0.1-1.2,0.4-1.7c0.2-0.5,0.5-0.9,0.9-1.3s0.8-0.7,1.3-1c0.5-0.3,1-0.5,1.6-0.7c0.5-0.2,1.1-0.3,1.7-0.4
		c0.6-0.1,1.1-0.1,1.6-0.1c0.6,0,1.2,0,1.8,0.1c0.6,0.1,1.1,0.1,1.7,0.2c0.5,0.1,1,0.2,1.4,0.3c0.4,0.1,0.8,0.3,1.1,0.4v4.1h-2.3
		l-0.8-2c-0.3-0.3-0.7-0.6-1.1-0.9s-0.9-0.4-1.5-0.4c-0.4,0-0.8,0-1.1,0.1c-0.4,0.1-0.7,0.2-1,0.4c-0.3,0.2-0.5,0.4-0.7,0.6
		c-0.2,0.3-0.2,0.6-0.2,0.9c0,0.4,0.1,0.8,0.3,1.1c0.2,0.3,0.5,0.6,0.8,0.9c0.3,0.3,0.7,0.5,1.2,0.8c0.5,0.2,0.9,0.5,1.4,0.7
		c0.7,0.3,1.5,0.7,2.2,1c0.7,0.3,1.4,0.7,2,1.2c0.6,0.5,1.1,1,1.5,1.6c0.4,0.6,0.6,1.4,0.6,2.2c0,1-0.2,1.9-0.6,2.6
		c-0.4,0.7-1,1.3-1.8,1.8c-0.7,0.5-1.6,0.8-2.6,1c-1,0.2-2,0.3-3.2,0.3c-0.5,0-1.1,0-1.6-0.1c-0.6-0.1-1.1-0.1-1.7-0.3
		c-0.5-0.1-1.1-0.3-1.6-0.4c-0.5-0.2-1-0.4-1.4-0.7V116.9z"/>
</g>
</svg>
