<?xml version="1.0" encoding="utf-8"?>
<!-- Generator: Adobe Illustrator 19.1.1, SVG Export Plug-In . SVG Version: 6.00 Build 0)  -->
<svg version="1.1" id="Layer_1" xmlns="http://www.w3.org/2000/svg" xmlns:xlink="http://www.w3.org/1999/xlink" x="0px" y="0px"
	 viewBox="-98 22.7 302.9 457.3" style="enable-background:new -98 22.7 302.9 457.3;" xml:space="preserve">
<style type="text/css">
	.st0{fill:#141414;}
</style>
<g>
	<path class="st0" d="M-98,348.5h35.3l23,64c5.4,6.3,11.4,11.4,18.2,15.4c6.8,3.9,14,7,21.7,9.2s15.5,3.6,23.5,4.3
		c8,0.7,16,1,23.8,1c8.8,0,17.7-1.2,26.8-3.6S91.6,432.5,99,427s13.4-12.6,18.1-21.4s7-19.6,7-32.4c0-10.9-3-20.8-8.9-29.7
		c-5.9-8.9-13.8-17.2-23.5-25c-9.8-7.8-21-15.2-33.6-22.4c-12.6-7.2-25.6-14.4-39-21.7c-14.4-7.8-28.5-16.2-42.5-25
		s-26.5-18.5-37.5-29.1s-19.9-22.5-26.7-35.6s-10.2-28-10.2-44.6c0-13.2,2.1-25.3,6.2-36.3s9.7-20.9,16.8-29.6s15.4-16.3,25-22.7
		S-30,39.7-19.2,35.4c10.8-4.3,22.1-7.5,33.9-9.6c11.7-2,23.4-3.1,34.9-3.1c14.9,0,29.3,0.7,43.1,2.2c13.8,1.4,26.3,3.2,37.6,5.3
		s21,4.4,29,6.9s13.8,4.8,17.2,6.9v88.4h-37.3l-25-58c-1.9-1.9-5-3.8-9.2-5.7c-4.2-1.9-9.1-3.6-14.6-5c-5.6-1.4-11.5-2.6-17.9-3.4
		C66.1,59.4,59.7,59,53.4,59c-7.7,0-15.8,0.9-24.4,2.7c-8.6,1.8-16.6,5-23.8,9.5C-2.2,75.6-8.2,81.5-13,89s-7.2,16.8-7.2,28.1
		c0,10.7,2.4,20.5,7.3,29.4s11.4,17.2,19.5,25s17.6,15,28.4,21.7s22.1,13.3,34,19.8c10.5,5.7,21.2,11.5,32,17.4
		c10.8,5.8,21.2,12,31.3,18.5c10,6.5,19.5,13.4,28.3,20.7c8.8,7.3,16.5,15.2,23.1,23.7s11.8,17.8,15.5,28
		c3.7,10.1,5.6,21.2,5.6,33.3c0,19.7-4,37.3-11.9,52.8s-19,28.7-33.2,39.5s-31.1,19-50.8,24.7c-19.7,5.6-41.4,8.5-65.2,8.5
		c-13.8,0-27.8-0.7-42.1-2.2c-14.3-1.4-27.8-3.4-40.5-5.7c-12.7-2.4-24.3-5.1-34.7-8.2c-10.3-3.1-18.5-6.3-24.4-9.6L-98,348.5
		L-98,348.5z"/>
</g>
<g>
	<path class="st0" d="M10.2,110.4h2l1.3,3.7c0.3,0.4,0.7,0.7,1.1,0.9c0.4,0.2,0.8,0.4,1.3,0.5c0.4,0.1,0.9,0.2,1.4,0.2
		s0.9,0.1,1.4,0.1s1-0.1,1.6-0.2c0.5-0.1,1-0.4,1.4-0.7c0.4-0.3,0.8-0.7,1-1.2c0.3-0.5,0.4-1.1,0.4-1.9c0-0.6-0.2-1.2-0.5-1.7
		s-0.8-1-1.4-1.4s-1.2-0.9-1.9-1.3s-1.5-0.8-2.3-1.3s-1.6-0.9-2.5-1.4c-0.8-0.5-1.5-1.1-2.2-1.7c-0.6-0.6-1.2-1.3-1.5-2.1
		c-0.4-0.8-0.6-1.6-0.6-2.6c0-0.8,0.1-1.5,0.4-2.1c0.2-0.6,0.6-1.2,1-1.7s0.9-0.9,1.4-1.3c0.6-0.4,1.1-0.7,1.8-0.9
		c0.6-0.2,1.3-0.4,2-0.6c0.7-0.1,1.4-0.2,2-0.2c0.9,0,1.7,0,2.5,0.1s1.5,0.2,2.2,0.3c0.7,0.1,1.2,0.3,1.7,0.4s0.8,0.3,1,0.4v5.1H24
		l-1.4-3.4c-0.1-0.1-0.3-0.2-0.5-0.3c-0.2-0.1-0.5-0.2-0.8-0.3s-0.7-0.1-1-0.2c-0.4,0-0.7-0.1-1.1-0.1s-0.9,0.1-1.4,0.2
		s-1,0.3-1.4,0.5c-0.4,0.3-0.8,0.6-1,1s-0.4,1-0.4,1.6s0.1,1.2,0.4,1.7c0.3,0.5,0.7,1,1.1,1.4c0.5,0.4,1,0.9,1.6,1.3s1.3,0.8,2,1.1
		c0.6,0.3,1.2,0.7,1.9,1c0.6,0.3,1.2,0.7,1.8,1.1c0.6,0.4,1.1,0.8,1.6,1.2c0.5,0.4,1,0.9,1.3,1.4c0.4,0.5,0.7,1,0.9,1.6
		c0.2,0.6,0.3,1.2,0.3,1.9c0,1.1-0.2,2.2-0.7,3.1s-1.1,1.7-1.9,2.3c-0.8,0.6-1.8,1.1-2.9,1.4s-2.4,0.5-3.8,0.5c-0.8,0-1.6,0-2.4-0.1
		c-0.8-0.1-1.6-0.2-2.3-0.3c-0.7-0.1-1.4-0.3-2-0.5s-1.1-0.4-1.4-0.5v-6H10.2z"/>
	<path class="st0" d="M30.4,115.7l2.4-0.4v-21L30,93.4v-2l6.7-0.9l0.9,0.4v14.9l-0.1,2.4l6.2-6.6l-2.8-0.3v-2.4h9.4v2.4l-3,0.3
		l-4.7,4.6l6.2,9l2,0.3v1.9h-9v-1.9l1.7-0.4l-3.9-6.3l-2.1,2.3l0.1,2.1v1.9l2.1,0.4v1.9h-9.3C30.4,117.4,30.4,115.7,30.4,115.7z"/>
	<path class="st0" d="M52.5,115.7l2.5-0.4v-11.7l-2.2-1.9v-1.3l5.7-1.8l1.1,0.4v16.4l2.5,0.4v1.9h-9.7v-2H52.5z M56.7,95.2
		c-0.4,0-0.7-0.1-1.1-0.2c-0.3-0.1-0.6-0.3-0.9-0.5c-0.3-0.2-0.5-0.5-0.6-0.8c-0.2-0.3-0.2-0.7-0.2-1.1c0-0.5,0.1-0.9,0.3-1.3
		s0.5-0.7,0.8-1s0.7-0.5,1.1-0.7c0.4-0.2,0.8-0.2,1.2-0.2c0.5,0,0.9,0.1,1.3,0.2c0.4,0.1,0.6,0.3,0.9,0.6c0.2,0.2,0.4,0.5,0.5,0.8
		s0.2,0.7,0.2,1c0,0.5-0.1,0.9-0.3,1.3s-0.4,0.7-0.8,1c-0.3,0.3-0.7,0.5-1.1,0.6C57.5,95.1,57.1,95.2,56.7,95.2z"/>
	<path class="st0" d="M64.3,115.7l2.3-0.4V94l-2.4-0.8v-1.9l6.3-0.8l0.8,0.3v24.4l2.9,0.4v1.9h-10L64.3,115.7L64.3,115.7z"/>
	<path class="st0" d="M76.2,115.7l2.3-0.4V94l-2.4-0.8v-1.9l6.3-0.8l0.8,0.3v24.4l2.9,0.4v1.9h-10L76.2,115.7L76.2,115.7z"/>
	<path class="st0" d="M88.9,112.4h2.2l0.9,1.9c0.2,0.2,0.4,0.4,0.6,0.6s0.5,0.3,0.7,0.5s0.6,0.3,0.9,0.4s0.7,0.2,1.1,0.2
		c1.1,0.1,2-0.1,2.6-0.6c0.6-0.4,0.9-1.1,0.9-2c0-0.4-0.1-0.7-0.4-1s-0.6-0.6-1-0.9s-0.9-0.5-1.4-0.8s-1.1-0.5-1.7-0.8
		c-0.7-0.3-1.4-0.7-2.1-1.1s-1.3-0.8-1.8-1.3s-0.9-1.1-1.2-1.7c-0.3-0.6-0.5-1.4-0.4-2.2c0-0.6,0.1-1.2,0.4-1.7
		c0.2-0.5,0.5-0.9,0.9-1.3s0.8-0.7,1.3-1s1-0.5,1.6-0.7c0.5-0.2,1.1-0.3,1.7-0.4s1.1-0.1,1.6-0.1c0.6,0,1.2,0,1.8,0.1
		c0.6,0.1,1.1,0.1,1.7,0.2c0.5,0.1,1,0.2,1.4,0.3c0.4,0.1,0.8,0.3,1.1,0.4v4.1H100l-0.8-2c-0.3-0.3-0.7-0.6-1.1-0.9
		s-0.9-0.4-1.5-0.4c-0.4,0-0.8,0-1.1,0.1c-0.4,0.1-0.7,0.2-1,0.4c-0.3,0.2-0.5,0.4-0.7,0.6c-0.2,0.3-0.2,0.6-0.2,0.9
		c0,0.4,0.1,0.8,0.3,1.1c0.2,0.3,0.5,0.6,0.8,0.9s0.7,0.5,1.2,0.8c0.5,0.2,0.9,0.5,1.4,0.7c0.7,0.3,1.5,0.7,2.2,1s1.4,0.7,2,1.2
		s1.1,1,1.5,1.6s0.6,1.4,0.6,2.2c0,1-0.2,1.9-0.6,2.6s-1,1.3-1.8,1.8c-0.7,0.5-1.6,0.8-2.6,1s-2,0.3-3.2,0.3c-0.5,0-1.1,0-1.6-0.1
		c-0.6-0.1-1.1-0.1-1.7-0.3c-0.5-0.1-1.1-0.3-1.6-0.4c-0.5-0.2-1-0.4-1.4-0.7v-3.5H88.9z"/>
</g>
</svg>
