<?xml version="1.0" encoding="utf-8"?>
<!-- Generator: Adobe Illustrator 19.1.1, SVG Export Plug-In . SVG Version: 6.00 Build 0)  -->
<svg version="1.1" id="Layer_1" xmlns="http://www.w3.org/2000/svg" xmlns:xlink="http://www.w3.org/1999/xlink" x="0px" y="0px"
	 viewBox="0 0 302.9 457.3" style="enable-background:new 0 0 302.9 457.3;" xml:space="preserve">
<style type="text/css">
	.Drop_x0020_Shadow{fill:none;}
	.Outer_x0020_Glow_x0020_5_x0020_pt{fill:none;}
	.Blue_x0020_Neon{fill:none;stroke:#8AACDA;stroke-width:7;stroke-linecap:round;stroke-linejoin:round;}
	.Chrome_x0020_Highlight{fill:url(#SVGID_1_);stroke:#FFFFFF;stroke-width:0.3629;stroke-miterlimit:1;}
	.Jive_GS{fill:#FFDD00;}
	.Alyssa_GS{fill:#A6D0E4;}
	.st0{fill:#FFB253;}
	.st1{fill:#FFFFFF;}
</style>
<linearGradient id="SVGID_1_" gradientUnits="userSpaceOnUse" x1="-87.0054" y1="-12.1685" x2="-87.0054" y2="-13.1685">
	<stop  offset="0" style="stop-color:#656565"/>
	<stop  offset="0.618" style="stop-color:#1B1B1B"/>
	<stop  offset="0.6292" style="stop-color:#545454"/>
	<stop  offset="0.9831" style="stop-color:#3E3E3E"/>
</linearGradient>
<g>
	<path class="st0" d="M0,325.8h35.3l23,64c5.4,6.3,11.4,11.4,18.2,15.4c6.8,3.9,14,7,21.7,9.2c7.7,2.2,15.5,3.6,23.5,4.3
		c8,0.7,16,1,23.8,1c8.8,0,17.7-1.2,26.8-3.6c9.1-2.4,17.3-6.3,24.7-11.8c7.4-5.5,13.4-12.6,18.1-21.4c4.7-8.8,7-19.6,7-32.4
		c0-10.9-3-20.8-8.9-29.7c-5.9-8.9-13.8-17.2-23.5-25c-9.8-7.8-21-15.2-33.6-22.4c-12.6-7.2-25.6-14.4-39-21.7
		c-14.4-7.8-28.5-16.2-42.5-25c-14-8.8-26.5-18.5-37.5-29.1c-11-10.6-19.9-22.5-26.7-35.6c-6.8-13.1-10.2-28-10.2-44.6
		c0-13.2,2.1-25.3,6.2-36.3c4.1-11,9.7-20.9,16.8-29.6c7.1-8.7,15.4-16.3,25-22.7c9.6-6.4,19.8-11.8,30.6-16.1
		c10.8-4.3,22.1-7.5,33.9-9.6C124.4,1.1,136.1,0,147.6,0c14.9,0,29.3,0.7,43.1,2.2c13.8,1.4,26.3,3.2,37.6,5.3
		c11.3,2.1,21,4.4,29,6.9c8,2.5,13.8,4.8,17.2,6.9v88.4h-37.3l-25-58c-1.9-1.9-5-3.8-9.2-5.7c-4.2-1.9-9.1-3.6-14.6-5
		c-5.6-1.4-11.5-2.6-17.9-3.4c-6.4-0.9-12.8-1.3-19.1-1.3c-7.7,0-15.8,0.9-24.4,2.7c-8.6,1.8-16.6,5-23.8,9.5
		C95.8,52.9,89.8,58.8,85,66.3c-4.8,7.5-7.2,16.8-7.2,28.1c0,10.7,2.4,20.5,7.3,29.4c4.9,8.9,11.4,17.2,19.5,25
		c8.1,7.8,17.6,15,28.4,21.7c10.8,6.7,22.1,13.3,34,19.8c10.5,5.7,21.2,11.5,32,17.4c10.8,5.8,21.2,12,31.3,18.5
		c10,6.5,19.5,13.4,28.3,20.7c8.8,7.3,16.5,15.2,23.1,23.7c6.6,8.5,11.8,17.8,15.5,28c3.7,10.1,5.6,21.2,5.6,33.3
		c0,19.7-4,37.3-11.9,52.8c-7.9,15.5-19,28.7-33.2,39.5c-14.2,10.8-31.1,19-50.8,24.7c-19.7,5.6-41.4,8.5-65.2,8.5
		c-13.8,0-27.8-0.7-42.1-2.2c-14.3-1.4-27.8-3.4-40.5-5.7c-12.7-2.4-24.3-5.1-34.7-8.2C14.1,438.2,5.9,435,0,431.7V325.8z"/>
</g>
<g>
	<path class="st1" d="M103.1,89.2h1.9l1.3,3.5c0.3,0.3,0.6,0.6,1,0.8c0.4,0.2,0.8,0.4,1.2,0.5c0.4,0.1,0.8,0.2,1.3,0.2
		c0.4,0,0.9,0.1,1.3,0.1c0.5,0,1-0.1,1.5-0.2c0.5-0.1,0.9-0.3,1.3-0.6c0.4-0.3,0.7-0.7,1-1.2c0.3-0.5,0.4-1.1,0.4-1.8
		c0-0.6-0.2-1.1-0.5-1.6c-0.3-0.5-0.8-0.9-1.3-1.4s-1.1-0.8-1.8-1.2s-1.4-0.8-2.1-1.2c-0.8-0.4-1.6-0.9-2.3-1.4
		c-0.8-0.5-1.4-1-2-1.6c-0.6-0.6-1.1-1.2-1.5-1.9c-0.4-0.7-0.6-1.5-0.6-2.4c0-0.7,0.1-1.4,0.3-2c0.2-0.6,0.5-1.1,0.9-1.6
		c0.4-0.5,0.8-0.9,1.4-1.2c0.5-0.3,1.1-0.6,1.7-0.9c0.6-0.2,1.2-0.4,1.8-0.5c0.6-0.1,1.3-0.2,1.9-0.2c0.8,0,1.6,0,2.3,0.1
		s1.4,0.2,2,0.3c0.6,0.1,1.1,0.2,1.6,0.4c0.4,0.1,0.8,0.3,0.9,0.4v4.8h-2l-1.4-3.2c-0.1-0.1-0.3-0.2-0.5-0.3
		c-0.2-0.1-0.5-0.2-0.8-0.3c-0.3-0.1-0.6-0.1-1-0.2c-0.3,0-0.7-0.1-1-0.1c-0.4,0-0.9,0-1.3,0.1c-0.5,0.1-0.9,0.3-1.3,0.5
		c-0.4,0.2-0.7,0.6-1,1c-0.3,0.4-0.4,0.9-0.4,1.5c0,0.6,0.1,1.1,0.4,1.6s0.6,0.9,1.1,1.4c0.4,0.4,1,0.8,1.5,1.2
		c0.6,0.4,1.2,0.7,1.9,1.1c0.6,0.3,1.2,0.6,1.7,0.9c0.6,0.3,1.2,0.7,1.7,1c0.5,0.4,1.1,0.7,1.5,1.1c0.5,0.4,0.9,0.8,1.3,1.3
		c0.4,0.5,0.6,1,0.8,1.5c0.2,0.6,0.3,1.2,0.3,1.8c0,1.1-0.2,2-0.6,2.9c-0.4,0.8-1,1.6-1.8,2.1c-0.8,0.6-1.7,1-2.8,1.3
		c-1.1,0.3-2.3,0.5-3.5,0.5c-0.8,0-1.5,0-2.3-0.1c-0.8-0.1-1.5-0.2-2.2-0.3c-0.7-0.1-1.3-0.3-1.9-0.4c-0.6-0.2-1-0.3-1.3-0.5V89.2z"
		/>
	<path class="st1" d="M124.2,80.9h-2.4v-1.5c0.4-0.1,0.7-0.1,1-0.2c0.3-0.1,0.5-0.1,0.8-0.2c0.2-0.1,0.4-0.2,0.6-0.3
		c0.2-0.1,0.3-0.3,0.5-0.5c0.1-0.2,0.3-0.4,0.4-0.7s0.3-0.6,0.4-0.9s0.3-0.7,0.4-1.1c0.1-0.4,0.2-0.8,0.4-1.1h2.2v4.2h5.3v2.4h-5.2
		v6.6c0,1.3,0,2.4,0.1,3.2c0,0.8,0.1,1.4,0.3,1.8c0.1,0.4,0.3,0.7,0.6,0.8c0.2,0.1,0.6,0.2,1,0.2c0.2,0,0.5,0,0.8-0.1
		c0.3,0,0.6-0.1,0.8-0.1c0.3-0.1,0.5-0.1,0.8-0.2s0.4-0.2,0.6-0.2l0.7,1.6c-0.2,0.3-0.6,0.5-1,0.7c-0.4,0.2-0.9,0.4-1.4,0.6
		s-1.1,0.3-1.6,0.4c-0.6,0.1-1.1,0.1-1.7,0.1c-0.8,0-1.4-0.1-1.9-0.3c-0.5-0.2-0.9-0.5-1.3-0.9c-0.3-0.4-0.6-1-0.7-1.6
		c-0.1-0.7-0.2-1.4-0.2-2.3V80.9z"/>
	<path class="st1" d="M137.6,81.6l-1.5-0.8v-1.6l5.1-1.2l0.7,0.3v10.8c0,0.8,0,1.4,0.1,2c0.1,0.6,0.2,1,0.4,1.4
		c0.2,0.4,0.5,0.7,0.9,0.8c0.4,0.2,0.8,0.3,1.4,0.3c0.4,0,0.7,0,1.1-0.1c0.4-0.1,0.7-0.2,1-0.3c0.3-0.1,0.6-0.3,0.8-0.4
		c0.2-0.1,0.4-0.3,0.6-0.4V81.8l-2-0.8v-1.8l5.6-1.2l0.7,0.3v15.9h1.8v1.5c-0.2,0.1-0.4,0.2-0.7,0.3s-0.6,0.2-0.9,0.3
		c-0.3,0.1-0.7,0.1-1.1,0.2c-0.4,0-0.7,0.1-1.1,0.1c-0.6,0-1-0.1-1.4-0.4c-0.4-0.2-0.6-0.6-0.6-1.2v-0.9c-0.4,0.4-0.8,0.7-1.2,1
		c-0.5,0.3-0.9,0.5-1.4,0.7s-1,0.4-1.4,0.5c-0.5,0.1-0.9,0.2-1.3,0.2c-1.1,0-2.1-0.2-2.8-0.5c-0.7-0.3-1.3-0.8-1.7-1.4
		c-0.4-0.6-0.7-1.3-0.8-2.2c-0.2-0.9-0.2-1.9-0.2-3V81.6z"/>
	<path class="st1" d="M163.9,96.3c-0.8,0-1.7-0.2-2.5-0.5c-0.9-0.3-1.6-0.9-2.3-1.6c-0.7-0.7-1.2-1.6-1.7-2.8
		c-0.4-1.1-0.6-2.5-0.6-4c0-1.4,0.3-2.7,0.8-3.8c0.5-1.2,1.2-2.2,2.1-3s1.9-1.5,3.1-2c1.2-0.5,2.4-0.7,3.8-0.7c0.3,0,0.7,0,1.1,0
		c0.4,0,0.8,0.1,1.3,0.2v-4.4l-3.4-0.8v-1.8l7-0.7l0.9,0.4v23.3h2.2v1.5c-0.4,0.2-0.9,0.4-1.6,0.5c-0.7,0.2-1.6,0.3-2.5,0.3
		c-0.6,0-1.1-0.1-1.5-0.3c-0.4-0.2-0.7-0.6-0.8-1.1c-0.2,0.2-0.5,0.3-0.8,0.5c-0.3,0.2-0.7,0.3-1.1,0.4c-0.4,0.1-0.9,0.2-1.4,0.3
		C165.1,96.3,164.5,96.3,163.9,96.3z M165.2,93.9c0.5,0.1,0.9,0.1,1.4,0c0.5,0,0.9-0.1,1.3-0.2c0.4-0.1,0.7-0.2,0.9-0.4V80.7
		c-0.6-0.6-1.6-0.8-2.8-0.8c-0.3,0-0.6,0-0.9,0.1c-0.3,0.1-0.7,0.2-1,0.4c-0.3,0.2-0.7,0.4-1,0.8c-0.3,0.3-0.6,0.7-0.9,1.2
		c-0.3,0.5-0.5,1.1-0.6,1.8c-0.2,0.7-0.3,1.5-0.3,2.4c0,1.2,0.1,2.2,0.3,3s0.5,1.6,0.8,2.2s0.8,1.1,1.3,1.4
		C164.1,93.5,164.6,93.8,165.2,93.9z"/>
	<path class="st1" d="M177.7,94.1l2.3-0.4v-11l-2.1-1.8v-1.3l5.4-1.7l1,0.4v15.4l2.4,0.4v1.8h-9.1V94.1z M181.7,74.9
		c-0.3,0-0.7-0.1-1-0.2c-0.3-0.1-0.6-0.3-0.9-0.5c-0.3-0.2-0.5-0.5-0.6-0.8c-0.2-0.3-0.2-0.7-0.2-1c0-0.4,0.1-0.8,0.3-1.2
		c0.2-0.4,0.4-0.7,0.7-0.9c0.3-0.3,0.7-0.5,1-0.6c0.4-0.2,0.8-0.2,1.1-0.2c0.5,0,0.9,0.1,1.2,0.2c0.3,0.1,0.6,0.3,0.8,0.5
		c0.2,0.2,0.4,0.5,0.5,0.8c0.1,0.3,0.2,0.6,0.2,1c0,0.4-0.1,0.9-0.3,1.2c-0.2,0.4-0.4,0.7-0.7,0.9c-0.3,0.3-0.6,0.5-1,0.6
		C182.4,74.8,182,74.9,181.7,74.9z"/>
	<path class="st1" d="M188.8,87c0-1.5,0.3-2.8,0.8-4c0.5-1.1,1.2-2.1,2-2.8s1.8-1.3,2.9-1.7c1.1-0.4,2.2-0.6,3.4-0.6
		c1.4,0,2.6,0.2,3.6,0.6c1.1,0.4,1.9,1,2.7,1.8c0.7,0.8,1.3,1.7,1.6,2.8c0.4,1.1,0.6,2.3,0.6,3.7c0,1.5-0.3,2.9-0.7,4.1
		c-0.5,1.2-1.1,2.2-1.9,3c-0.8,0.8-1.8,1.4-2.8,1.8c-1.1,0.4-2.2,0.6-3.4,0.6c-1.6,0-2.9-0.2-4-0.7c-1.1-0.5-2-1.2-2.7-2
		c-0.7-0.9-1.2-1.8-1.5-3C189,89.4,188.8,88.3,188.8,87z M197.6,94.2c0.8,0,1.4-0.2,2-0.6c0.5-0.4,0.9-0.9,1.2-1.6
		c0.3-0.7,0.5-1.4,0.6-2.3c0.1-0.9,0.2-1.8,0.2-2.8c0-0.9-0.1-1.7-0.2-2.6s-0.3-1.6-0.6-2.3c-0.3-0.7-0.7-1.2-1.2-1.6
		c-0.5-0.4-1.1-0.6-1.9-0.6c-0.8,0-1.5,0.2-2,0.5c-0.5,0.4-1,0.9-1.3,1.5c-0.3,0.6-0.5,1.3-0.7,2.2c-0.1,0.8-0.2,1.7-0.2,2.6
		c0,0.5,0,1.1,0.1,1.7c0.1,0.6,0.2,1.2,0.3,1.7c0.1,0.6,0.3,1.1,0.5,1.6c0.2,0.5,0.5,0.9,0.8,1.3c0.3,0.4,0.6,0.7,1,0.9
		C196.6,94.1,197.1,94.2,197.6,94.2z"/>
</g>
</svg>
