<?xml version="1.0" encoding="utf-8"?>
<!-- Generator: Adobe Illustrator 19.1.1, SVG Export Plug-In . SVG Version: 6.00 Build 0)  -->
<svg version="1.1" id="Layer_1" xmlns="http://www.w3.org/2000/svg" xmlns:xlink="http://www.w3.org/1999/xlink" x="0px" y="0px"
	 viewBox="-98 22.7 302.9 457.3" style="enable-background:new -98 22.7 302.9 457.3;" xml:space="preserve">
<style type="text/css">
	.st0{fill:#141414;}
</style>
<g>
	<path class="st0" d="M19.3,161.4l2.3-0.5v-16l-2.2-0.3v-1.9h4.1c0.5,0,1.3,0,2-0.1c0.8-0.1,1.6-0.1,2.5-0.1c1,0,2,0.1,2.9,0.2
		c0.9,0.2,1.6,0.5,2.3,0.9c0.6,0.5,1.2,1.1,1.6,1.8c0.4,0.8,0.5,1.7,0.5,2.9c0,1.1-0.2,2-0.6,2.8c-0.4,0.9-0.9,1.5-1.6,2.1
		c-0.7,0.5-1.5,1-2.4,1.3c-0.9,0.3-1.9,0.4-3,0.4c-0.5,0-1,0-1.4,0c-0.4,0-0.7,0-1,0v5.8l3.3,0.5v1.5h-9.4
		C19.3,162.8,19.3,161.4,19.3,161.4z M25.3,153.1c0.4,0.1,0.8,0.1,1.2,0.1c0.5,0,0.9,0,1.2,0c0.5,0,1-0.1,1.6-0.2
		c0.5-0.2,0.9-0.4,1.3-0.8c0.4-0.4,0.7-0.9,0.9-1.5c0.2-0.6,0.3-1.4,0.3-2.4c0-0.7-0.1-1.3-0.3-1.8c-0.2-0.5-0.5-0.9-0.9-1.2
		s-0.9-0.5-1.4-0.7c-0.5-0.2-1.2-0.2-1.8-0.2c-0.2,0-0.3,0-0.5,0c-0.2,0-0.4,0-0.5,0c-0.2,0-0.4,0-0.5,0.1c-0.2,0-0.3,0.1-0.5,0.1
		C25.3,144.6,25.3,153.1,25.3,153.1z"/>
	<path class="st0" d="M37,161.4l1.8-0.3v-9.4l-1.8-1.2v-1.3l4.2-1.3l0.8,0.2v2.3c0.2-0.4,0.4-0.7,0.7-1c0.3-0.3,0.7-0.5,1.1-0.8
		c0.4-0.2,0.8-0.4,1.2-0.5c0.4-0.2,0.8-0.2,1.1-0.2s0.5,0,0.8,0c0.2,0,0.4,0.1,0.5,0.1v3.4c-0.2-0.2-0.5-0.3-1-0.4
		c-0.4-0.1-0.9-0.2-1.3-0.2c-0.4,0-0.7,0-0.9,0.1c-0.3,0.1-0.5,0.1-0.7,0.2c-0.2,0.1-0.4,0.2-0.5,0.2c-0.2,0.1-0.3,0.2-0.4,0.2v9.3
		l3.3,0.4v1.5H37V161.4z"/>
	<path class="st0" d="M49.2,155.5c0-1.3,0.2-2.3,0.6-3.3c0.4-0.9,0.9-1.7,1.6-2.3s1.5-1.1,2.3-1.4c0.9-0.3,1.8-0.5,2.8-0.5
		c1.2,0,2.1,0.2,3,0.5s1.6,0.9,2.2,1.5c0.6,0.6,1,1.4,1.3,2.3c0.3,0.9,0.5,2,0.5,3c0,1.3-0.2,2.4-0.6,3.4c-0.4,1-0.9,1.8-1.6,2.5
		c-0.7,0.7-1.5,1.2-2.3,1.5s-1.8,0.5-2.8,0.5c-1.3,0-2.4-0.2-3.3-0.6c-0.9-0.4-1.6-0.9-2.2-1.6c-0.5-0.7-1-1.6-1.3-2.4
		C49.2,157.5,49.2,156.5,49.2,155.5z M56.4,161.5c0.6,0,1.2-0.2,1.6-0.5c0.5-0.3,0.8-0.8,1-1.3c0.2-0.5,0.4-1.2,0.5-1.9
		c0.1-0.7,0.2-1.5,0.2-2.3c0-0.7-0.1-1.4-0.2-2.1s-0.3-1.3-0.5-1.9c-0.2-0.5-0.5-1-1-1.3c-0.4-0.3-0.9-0.5-1.6-0.5
		c-0.7,0-1.3,0.2-1.6,0.5c-0.5,0.3-0.8,0.7-1.1,1.3c-0.2,0.5-0.5,1.1-0.5,1.8c-0.1,0.7-0.2,1.4-0.2,2.2c0,0.5,0,0.9,0.1,1.4
		c0.1,0.5,0.2,0.9,0.2,1.4s0.2,0.9,0.4,1.3c0.2,0.4,0.4,0.8,0.6,1.1s0.5,0.5,0.9,0.8C55.6,161.4,56,161.5,56.4,161.5z"/>
	<path class="st0" d="M65.9,156c0-1.3,0.2-2.3,0.5-3.3c0.4-1,0.9-1.8,1.6-2.5c0.7-0.7,1.5-1.3,2.4-1.6c0.9-0.4,2-0.5,3-0.6
		c0.4,0,0.9,0,1.3,0c0.4,0,0.9,0.1,1.3,0.2c0.4,0.1,0.8,0.2,1.1,0.2s0.5,0.2,0.8,0.3v3.7H76l-0.9-2.1c-0.2-0.2-0.5-0.3-0.9-0.3
		c-0.4-0.1-0.7-0.1-0.9-0.1c-0.5,0-0.9,0.1-1.4,0.3c-0.4,0.2-0.8,0.5-1.1,0.9c-0.3,0.4-0.5,0.9-0.8,1.6c-0.2,0.6-0.3,1.3-0.3,2.2
		c0,1.1,0.1,2,0.3,2.8c0.2,0.8,0.5,1.4,1,2c0.4,0.5,0.9,0.9,1.5,1.1c0.5,0.2,1.1,0.3,1.6,0.3c0.4,0,0.7,0,1.1-0.1
		c0.4-0.1,0.7-0.1,1-0.2c0.3-0.1,0.6-0.2,0.9-0.2c0.2-0.1,0.5-0.2,0.6-0.3l0.5,1.4c-0.3,0.2-0.6,0.5-1.1,0.7
		c-0.4,0.2-0.9,0.4-1.3,0.5c-0.5,0.2-1,0.2-1.6,0.3c-0.5,0.1-1.1,0.1-1.7,0.1c-1.1,0-2-0.2-2.9-0.5c-0.9-0.4-1.6-0.9-2.1-1.5
		s-1-1.4-1.3-2.3C66,158,65.9,157.1,65.9,156z"/>
	<path class="st0" d="M80,155.9c0-1.1,0.2-2.1,0.5-3.1c0.4-1,0.9-1.8,1.6-2.5c0.6-0.7,1.5-1.3,2.4-1.6s2-0.6,3.1-0.6
		c0.9,0,1.7,0.1,2.4,0.4c0.7,0.2,1.3,0.6,1.7,1.1c0.5,0.5,0.8,1,1.1,1.7c0.2,0.7,0.4,1.4,0.4,2.3c0,0.5,0,1,0,1.4
		c-0.1,0.4-0.1,0.8-0.2,1.1h-9.3v0.1v0.1c0.1,0.9,0.2,1.6,0.5,2.3c0.2,0.6,0.5,1.1,0.9,1.6c0.4,0.4,0.9,0.7,1.4,0.9s1.1,0.2,1.7,0.2
		c0.3,0,0.6,0,1-0.1c0.4,0,0.7-0.1,1.1-0.2c0.3-0.1,0.7-0.2,1-0.2s0.6-0.2,0.9-0.4l0.6,1.4c-0.3,0.2-0.6,0.5-1.1,0.7
		c-0.5,0.2-0.9,0.4-1.4,0.5c-0.5,0.2-1.1,0.2-1.6,0.3s-1.2,0.1-1.7,0.1c-1.1,0-2.1-0.2-3-0.5c-0.9-0.3-1.6-0.9-2.2-1.5
		s-1-1.4-1.3-2.3C80.2,158,80,157,80,155.9z M89.6,154.1c0-0.4,0.1-0.8,0.1-1.2c0-0.4,0-0.8-0.1-1.2c-0.1-0.4-0.2-0.7-0.3-1
		s-0.4-0.5-0.7-0.8c-0.2-0.2-0.4-0.2-0.6-0.3s-0.5-0.1-0.9-0.1c-0.5,0-0.9,0.1-1.3,0.3c-0.4,0.2-0.7,0.5-1,0.9
		c-0.2,0.4-0.5,0.9-0.6,1.4c-0.2,0.5-0.2,1.2-0.3,1.7h5.8V154.1z"/>
	<path class="st0" d="M96.2,158.9h1.7l0.7,1.5c0.2,0.2,0.3,0.3,0.5,0.5c0.2,0.2,0.4,0.2,0.5,0.4c0.2,0.2,0.5,0.2,0.7,0.3
		c0.2,0.1,0.5,0.2,0.9,0.2c0.9,0.1,1.6-0.1,2-0.5c0.5-0.3,0.7-0.9,0.7-1.6c0-0.3-0.1-0.5-0.3-0.8s-0.5-0.5-0.8-0.7
		c-0.3-0.2-0.7-0.4-1.1-0.6c-0.4-0.2-0.9-0.4-1.3-0.6c-0.5-0.2-1.1-0.5-1.6-0.9c-0.5-0.3-1-0.6-1.4-1c-0.4-0.4-0.7-0.9-0.9-1.3
		s-0.4-1.1-0.3-1.7c0-0.5,0.1-0.9,0.3-1.3c0.2-0.4,0.4-0.7,0.7-1s0.6-0.5,1-0.8c0.4-0.2,0.8-0.4,1.3-0.5c0.4-0.2,0.9-0.2,1.3-0.3
		c0.5-0.1,0.9-0.1,1.3-0.1c0.5,0,0.9,0,1.4,0.1s0.9,0.1,1.3,0.2c0.4,0.1,0.8,0.2,1.1,0.2c0.3,0.1,0.6,0.2,0.9,0.3v3.2h-1.9l-0.6-1.6
		c-0.2-0.2-0.5-0.5-0.9-0.7s-0.7-0.3-1.2-0.3c-0.3,0-0.6,0-0.9,0.1c-0.3,0.1-0.5,0.2-0.8,0.3s-0.4,0.3-0.5,0.5
		c-0.2,0.2-0.2,0.5-0.2,0.7c0,0.3,0.1,0.6,0.2,0.9s0.4,0.5,0.6,0.7c0.2,0.2,0.5,0.4,0.9,0.6c0.4,0.2,0.7,0.4,1.1,0.5
		c0.5,0.2,1.2,0.5,1.7,0.8c0.5,0.2,1.1,0.5,1.6,0.9c0.5,0.4,0.9,0.8,1.2,1.3c0.3,0.5,0.5,1.1,0.5,1.7c0,0.8-0.2,1.5-0.5,2
		c-0.3,0.5-0.8,1-1.4,1.4c-0.5,0.4-1.3,0.6-2,0.8c-0.8,0.2-1.6,0.2-2.5,0.2c-0.4,0-0.9,0-1.3-0.1c-0.5-0.1-0.9-0.1-1.3-0.2
		c-0.4-0.1-0.9-0.2-1.3-0.3c-0.4-0.2-0.8-0.3-1.1-0.5L96.2,158.9L96.2,158.9z"/>
	<path class="st0" d="M110.1,158.9h1.7l0.7,1.5c0.2,0.2,0.3,0.3,0.5,0.5c0.2,0.2,0.4,0.2,0.5,0.4c0.2,0.2,0.5,0.2,0.7,0.3
		c0.2,0.1,0.5,0.2,0.9,0.2c0.9,0.1,1.6-0.1,2-0.5c0.5-0.3,0.7-0.9,0.7-1.6c0-0.3-0.1-0.5-0.3-0.8c-0.2-0.2-0.5-0.5-0.8-0.7
		c-0.3-0.2-0.7-0.4-1.1-0.6c-0.4-0.2-0.9-0.4-1.3-0.6c-0.5-0.2-1.1-0.5-1.6-0.9c-0.5-0.3-1-0.6-1.4-1c-0.4-0.4-0.7-0.9-0.9-1.3
		s-0.4-1.1-0.3-1.7c0-0.5,0.1-0.9,0.3-1.3c0.2-0.4,0.4-0.7,0.7-1s0.6-0.5,1-0.8c0.4-0.2,0.8-0.4,1.3-0.5c0.4-0.2,0.9-0.2,1.3-0.3
		c0.5-0.1,0.9-0.1,1.3-0.1c0.5,0,0.9,0,1.4,0.1s0.9,0.1,1.3,0.2c0.4,0.1,0.8,0.2,1.1,0.2c0.3,0.1,0.6,0.2,0.9,0.3v3.2h-1.8l-0.6-1.6
		c-0.2-0.2-0.5-0.5-0.9-0.7s-0.7-0.3-1.2-0.3c-0.3,0-0.6,0-0.9,0.1c-0.3,0.1-0.5,0.2-0.8,0.3s-0.4,0.3-0.5,0.5
		c-0.2,0.2-0.2,0.5-0.2,0.7c0,0.3,0.1,0.6,0.2,0.9s0.4,0.5,0.6,0.7c0.2,0.2,0.5,0.4,0.9,0.6c0.4,0.2,0.7,0.4,1.1,0.5
		c0.5,0.2,1.2,0.5,1.7,0.8c0.5,0.2,1.1,0.5,1.6,0.9c0.5,0.4,0.9,0.8,1.2,1.3c0.3,0.5,0.5,1.1,0.5,1.7c0,0.8-0.2,1.5-0.5,2
		c-0.3,0.5-0.8,1-1.4,1.4c-0.5,0.4-1.3,0.6-2,0.8s-1.6,0.2-2.5,0.2c-0.4,0-0.9,0-1.3-0.1c-0.5-0.1-0.9-0.1-1.3-0.2
		c-0.4-0.1-0.9-0.2-1.3-0.3c-0.4-0.2-0.8-0.3-1.1-0.5v-2.7H110.1z"/>
</g>
<g>
	<path class="st0" d="M-101.2,443.3l44.7-10.9V79.5l-41.8-7.8V30h78.3c10.5,0,23.3-0.7,38.2-2c14.9-1.3,30.9-2,48.1-2
		c19.4,0,37.7,1.9,54.7,5.8c17,3.8,31.9,10.7,44.5,20.7c12.6,10,22.6,23.4,29.9,40.4c7.3,17,11,38.6,11,64.9
		c0,23.8-3.9,44.8-11.7,63.1c-7.8,18.3-18.4,33.7-31.7,46.2c-13.3,12.5-28.9,21.9-46.6,28.2c-17.7,6.3-36.4,9.4-56.2,9.2
		c-10.9-0.2-20-0.2-27.4-0.1c-7.4,0.1-13.8,0.2-19,0.4v128l63,10.6v33.4h-177.9V443.3z M13.7,261c6.9,1.3,14.5,2.2,22.7,2.6
		c8.2,0.4,15.6,0.6,22.2,0.6c10,0,19.7-1.6,29-4.9c9.3-3.3,17.5-9,24.7-17.3c7.2-8.2,12.9-19.4,17.2-33.4c4.3-14,6.4-31.7,6.4-53.2
		c0-15.3-2-28.6-5.9-39.8c-4-11.2-9.6-20.5-16.9-27.9c-7.3-7.4-16.2-12.8-26.6-16.3S64.7,66.3,52,66.3c-3,0-6.2,0.1-9.6,0.3
		c-3.5,0.2-6.9,0.5-10.4,0.9c-3.5,0.4-6.8,0.9-10,1.4s-6,1.2-8.3,2V261z"/>
</g>
</svg>
