<?xml version="1.0" encoding="utf-8"?>
<!-- Generator: Adobe Illustrator 19.1.1, SVG Export Plug-In . SVG Version: 6.00 Build 0)  -->
<svg version="1.1" id="Layer_1" xmlns="http://www.w3.org/2000/svg" xmlns:xlink="http://www.w3.org/1999/xlink" x="0px" y="0px"
	 viewBox="-179.9 23 464.3 457" style="enable-background:new -179.9 23 464.3 457;" xml:space="preserve">
<style type="text/css">
	.st0{fill:#141414;}
	.st1{fill:#FF7D52;}
</style>
<g>
	<path class="st0" d="M-179.9,73.6V23H39.9v50.6l-48.3,8.6l78.1,253L80.7,378l8.4-42.9L166,82.7l-47.7-9.2V23h166.1v50.6l-39.9,8.9
		L108.4,480H7.2L-144.2,82.4L-179.9,73.6z"/>
</g>
<g>
	<path class="st1" d="M151.3,40.3l0.2-1.8h10l-0.2,1.9l-2.7,0.5l2.1,15.3l0.4,4l1.5-4l7-15.3l-2.7-0.4l0.2-2h8.2l-0.3,1.8l-2.2,0.4
		l-11.1,23.8h-4.2l-3.9-23.8L151.3,40.3z"/>
	<path class="st1" d="M174.2,46.6l0.3-1.5l6.1-0.9l0.9,0.4l-2.3,15.9c0,0.2,0,0.4,0,0.5c0,0.5,0.2,0.8,0.5,0.8
		c0.2,0,0.4-0.1,0.7-0.2c0.3-0.1,0.6-0.4,1-0.7l0.5,1.1c-0.2,0.3-0.5,0.6-0.9,1s-1,0.7-1.6,1s-1.4,0.5-2.1,0.5
		c-0.9,0-1.6-0.2-2.1-0.5c-0.5-0.4-0.7-0.9-0.7-1.6c0-0.1,0-0.2,0-0.3c0.2-1.3,0.5-3.6,1-7l1-7.4L174.2,46.6z M177.4,37.3
		c0.3-0.5,0.6-0.8,1.1-1.1s1-0.4,1.5-0.4c0.5,0,0.9,0.1,1.3,0.3c0.4,0.2,0.7,0.5,0.9,0.9c0.2,0.4,0.3,0.7,0.3,1.2
		c0,0.6-0.1,1.1-0.4,1.6c-0.2,0.5-0.6,0.8-1.1,1.1c-0.5,0.3-1,0.4-1.7,0.4c-0.4,0-0.8-0.1-1.2-0.3c-0.4-0.2-0.7-0.5-0.9-0.9
		c-0.2-0.4-0.3-0.8-0.3-1.2C177,38.3,177.2,37.8,177.4,37.3z"/>
	<path class="st1" d="M186.3,61.5c0.8,0.3,1.7,0.5,2.6,0.5c0.8,0,1.5-0.2,2.1-0.5c0.6-0.3,0.9-0.9,0.9-1.8c0-0.5-0.1-1-0.4-1.4
		c-0.3-0.4-0.6-0.8-1-1.2c-0.4-0.4-1-0.8-1.7-1.3c-2.3-1.6-3.4-3.5-3.4-5.7c0-1.1,0.3-2.1,1-2.9c0.6-0.9,1.5-1.5,2.6-2
		c1.1-0.5,2.4-0.7,3.8-0.7c0.9,0,1.7,0.1,2.6,0.2c0.9,0.1,1.5,0.3,1.8,0.4l-0.7,3.3c-0.1-0.2-0.4-0.4-0.7-0.7
		c-0.3-0.3-0.8-0.5-1.3-0.7s-1.1-0.3-1.7-0.3c-0.8,0-1.5,0.2-2.1,0.6s-0.8,0.9-0.8,1.7c0,0.7,0.2,1.3,0.7,1.8
		c0.5,0.6,1.2,1.2,2.2,1.9c0.8,0.6,1.4,1.1,1.9,1.6c0.5,0.5,0.9,1.1,1.2,1.8c0.3,0.7,0.5,1.5,0.5,2.3c0,1.2-0.3,2.3-1,3.2
		s-1.6,1.5-2.8,2c-1.2,0.4-2.4,0.7-3.8,0.7c-0.7,0-1.4-0.1-2.1-0.2c-0.7-0.1-1.4-0.3-2-0.4s-1-0.3-1.2-0.5l0.7-3
		C184.9,60.8,185.5,61.2,186.3,61.5z"/>
	<path class="st1" d="M200.3,46.6l0.3-1.5l6.1-0.9l0.9,0.4l-2.3,15.9c0,0.2,0,0.4,0,0.5c0,0.5,0.2,0.8,0.5,0.8
		c0.2,0,0.4-0.1,0.7-0.2c0.3-0.1,0.6-0.4,1-0.7l0.5,1.1c-0.2,0.3-0.5,0.6-0.9,1c-0.4,0.4-1,0.7-1.6,1c-0.7,0.3-1.4,0.5-2.1,0.5
		c-0.9,0-1.6-0.2-2.1-0.5c-0.5-0.4-0.7-0.9-0.7-1.6c0-0.1,0-0.2,0-0.3c0.2-1.3,0.5-3.6,1-7l1-7.4L200.3,46.6z M203.6,37.3
		c0.3-0.5,0.6-0.8,1.1-1.1c0.5-0.3,1-0.4,1.5-0.4c0.5,0,0.9,0.1,1.3,0.3c0.4,0.2,0.7,0.5,0.9,0.9c0.2,0.4,0.3,0.7,0.3,1.2
		c0,0.6-0.1,1.1-0.4,1.6c-0.2,0.5-0.6,0.8-1.1,1.1c-0.5,0.3-1,0.4-1.7,0.4c-0.4,0-0.8-0.1-1.2-0.3c-0.4-0.2-0.7-0.5-0.9-0.9
		c-0.2-0.4-0.3-0.8-0.3-1.2C203.2,38.3,203.3,37.8,203.6,37.3z"/>
	<path class="st1" d="M226.5,46.7c1.3,1.4,1.9,3.4,1.9,6c0,2.1-0.4,4.1-1.3,5.9c-0.9,1.8-2.1,3.3-3.7,4.3c-1.6,1.1-3.4,1.6-5.4,1.6
		c-2.4,0-4.2-0.7-5.5-2.1c-1.2-1.4-1.9-3.4-1.9-6c0-2.1,0.4-4.1,1.3-5.9c0.9-1.8,2.1-3.2,3.7-4.3s3.4-1.6,5.4-1.6
		C223.4,44.6,225.2,45.3,226.5,46.7z M222.6,48.3c-0.5-0.9-1.2-1.4-2.2-1.4c-1,0-1.9,0.5-2.7,1.4c-0.7,0.9-1.3,2.1-1.6,3.6
		c-0.3,1.4-0.5,2.9-0.5,4.4v0.5c0,1.9,0.3,3.3,0.8,4.2c0.5,0.9,1.2,1.4,2.2,1.4c1.1,0,1.9-0.5,2.6-1.4c0.7-1,1.2-2.2,1.5-3.6
		c0.3-1.5,0.5-3,0.5-4.5C223.3,50.7,223.1,49.3,222.6,48.3z"/>
	<path class="st1" d="M231.8,47l0.3-1.5l5.4-0.9l0.9,0.4l-0.3,3.5c0.9-1.2,1.9-2.2,3-2.9s2.4-1.1,3.6-1.1c1.3,0,2.4,0.4,3.1,1.2
		c0.7,0.8,1.1,2.1,1.1,4c0,0.6-0.1,1.4-0.2,2.4c-0.2,1-0.4,2.2-0.6,3.7c-0.1,0.5-0.2,1-0.2,1.2c0,0.2-0.1,0.5-0.2,1.2
		s-0.2,1.2-0.2,1.7c-0.1,0.5-0.1,0.9-0.1,1.3c0,0.7,0.2,1,0.5,1c0.2,0,0.4-0.1,0.6-0.2c0.2-0.1,0.5-0.3,0.9-0.6l0.5,1.1
		c-0.2,0.2-0.5,0.5-0.9,0.8s-0.9,0.6-1.6,0.8c-0.6,0.3-1.3,0.4-2.1,0.4c-1,0-1.8-0.2-2.2-0.6c-0.4-0.4-0.6-1-0.6-1.8
		c0-0.4,0-0.9,0.1-1.5c0.1-0.6,0.2-1.2,0.3-1.8c0.1-0.6,0.2-1,0.2-1.2l0.2-0.8c0.3-1.4,0.5-2.6,0.6-3.7c0.2-1,0.2-2,0.2-2.8
		c0-0.7-0.1-1.2-0.2-1.6c-0.1-0.4-0.3-0.6-0.5-0.8c-0.2-0.1-0.5-0.2-0.9-0.2c-0.7,0-1.6,0.4-2.5,1.2c-0.9,0.8-1.7,1.7-2.4,2.9
		l-1.7,12.7h-4.6l2.2-16.5L231.8,47z"/>
</g>
</svg>
